<?xml version="1.0" ?><svg data-name="Layer 1" id="Layer_1" viewBox="0 0 128 128" xmlns="http://www.w3.org/2000/svg"><title/><path d="M80.71241,78.37514a6.1725,6.1725,0,0,0,1.17969-1.60205l.165-.37866a36.133,36.133,0,0,1,2.92731-5.845c1.437-2.21368,3.58765-2.19916,5.146-2.204a9.66264,9.66264,0,0,0,1.52429-.068c.1311-.01941.39325-.05823.62628-.10193,0-.1554,0-.36407-.01459-.64569a12.429,12.429,0,0,0-.38837-2.29138,21.00919,21.00919,0,0,1-.40289-2.06323c-.17-1.27191-.28162-1.50494-1.60693-2.27191a18.91,18.91,0,0,0-2.34-1.07776c-.59711-.24756-1.21362-.5-1.801-.78162a7.92137,7.92137,0,0,0-3.17975-.6554c-.56317-.04364-1.19916-.0874-1.88361-.18445a14.70974,14.70974,0,0,1-5.86932-2.66034,16.47075,16.47075,0,0,0-3.24286-1.801c-.18933-.06317-.38837-.1311-.58252-.1991-1.72827-.5874-3.874-1.31561-5.10223-3.12152a7.06,7.06,0,0,1-.66516-1.26709,1.90467,1.90467,0,0,0-.31061-.58252c-.14081-.15533-.14081-.15533-.44666-.28638a8.881,8.881,0,0,1-.97095-.48547c-4.26233-2.53412-5.28668-6.03918-5.51483-10.52a9.77519,9.77519,0,0,0-3.107-6.53925,9.97763,9.97763,0,0,1-1.12622-1.18451,2.57517,2.57517,0,0,0-1.38367.00488c-.4563.18445-.67474.95148-1.31073.903-.72815-.05341-.47089-.7962-.9563-1.14087-1.13123-.81555-1.92731.42725-2.89337.47577-.7962.034-1.38361-.70874-2.14093-.98553a6.86951,6.86951,0,0,0-2.97589-.33978c-1.57776.21356-2.08752.55347-3.82544-.199a9.12126,9.12126,0,0,0-.94672-.3399c-2.14081-.67963-4.476-1.94672-6.71875-2.48071a35.57443,35.57443,0,0,0-5.69452-.4903c-1.6991-.10193-4.107-.335-5.743.18933-1.471.47577-1.94672,1.96124-3.34973,2.24286-1.30109.25732-2.94672-.0874-2.98077,1.6214-.01941,1.10205.96124,2.005,1.27191,3.00018.12622.39807.06311.85931.19421,1.26709a7.5068,7.5068,0,0,0,.85443,1.50006c.51459.90784.05823,1.636.301,2.59241.24762.98547,1.31079,2.704-.05823,3.66034-.369.25732-1.28162.05341-1.76709.14075a5.71483,5.71483,0,0,0-3.00995,1.3739c-.68445.772-.74268,2.107-1.29614,2.98566A39.314,39.314,0,0,1,7.0821,48.99489C6.15,50.17452,5.20826,51.22317,5.52381,52.88833c.199,1.01947,1.1651,2.27191-.02429,2.8739-1.136.5777-1.43213-.21844-2.03406,1.22821-.59229,1.42725-1.8739,2.89825-2.33026,4.4129A2.75809,2.75809,0,0,0,1.12061,63.049c.4903,1.14087,1.19916.70392,2.21375,1.00006,1.50012.43689,1.57776,2.19922,3.12146,2.78656.9613.36414,1.88367-.37378,2.8595-.10193.47089.1311.77673.665,1.25244.81073.7088.21844,1.50494-.11652,2.22827.12134.73792.23785,1.31073.95636,2.09723,1.10205.67963.12622,1.02435-.17963,1.60687-.29614a3.09168,3.09168,0,0,1,1.28162-.17963c1.09229.18445.77191.47577,1.35931,1.33014.68933,1.00012,2.26221,1.84,3.33026.91272,1.15546-1.00977.83984-1.8739,2.85944-1.75256,1.39319.08252,2.87872.62146,4.039-.55341.35925-.36407.38837-.91266.71857-1.27191a17.44528,17.44528,0,0,1,1.6554-1.14569c.88843-.73792,1.738-.95642,2.66028-1.69434.636-.5097.602-.699,1.39331-.80585.87866-.12134,1.75739.39813,2.61182.37872,1.62146-.03888,2.17487-.24274,3.772.63593.49518.27185,1.00494.67963,1.48071.88837,1.41266.61652,2.99042.32526,4.27686,1.05347A14.19006,14.19006,0,0,1,50.89521,68.025a3.25914,3.25914,0,0,1,1.00006,2.24768,3.77255,3.77255,0,0,0,.96124,2.6167,3.18671,3.18671,0,0,1,.46118,2.21857c-.15051,1.38837,3.35944,3.78174,1.0874,5.57312-1.2088.95636-2.00006.19415-2.38843,1.92731-.10681.5.07275,1.77191-.2865,2.18939-.369.43207-1.17963.34467-1.57288.81555-.47577.55829-.62134,2.55359-.72821,3.34973-.19409,1.46124.17969,1.31567-1.27667,2.05359-1.25745.631-1.21368.95148-1.38849,2.09717-.16986,1.14569-.69421,1.30591-1.301,2.2428-1.9516,3.00989,3.31573,1.403,4.49054,1.2088a5.56151,5.56151,0,0,1,2.09241.07764,3.37409,3.37409,0,0,0,3.89337-2.56317A2.14009,2.14009,0,0,1,57.381,92.575c1.81079-.71362,2.14087-1.05347,3.49048-3.772a3.90583,3.90583,0,0,1,.85443-2.25745,7.08426,7.08426,0,0,0,.99518-2.23309c.568-1.704,3.13123-1.63116,4.69928-2.18463,1.22821-.43689,5.18469-1.21362,6.28674-.3349,1.26709,1.00488.42725,3.81079,2.33508,4.7041a2.11946,2.11946,0,0,0,1.16516.16986c.18445-.28638.3786-.5437.55829-.78644a3.97539,3.97539,0,0,0,.64563-1.03888,4.30342,4.30342,0,0,0,.03394-.94666,7.32592,7.32592,0,0,1,.1554-2.03412A8.00968,8.00968,0,0,1,80.71241,78.37514Z"/><path d="M125.31684,52.57277c-.20874-.903-.98553-1.738-.97095-2.67.01941-1.23792,1.2088-1.37384,1.46124-2.55359a7.5175,7.5175,0,0,0-.11652-3.31079c-.60193-1.16034-2.02917-.704-3.04382-1.15552-1.52924-.67957-1.27191-1.88837-3.13611-1.89807a11.17293,11.17293,0,0,1-3.90314-.51465,5.05784,5.05784,0,0,0-3.24286-.466c-1.15063.30585-1.97589.97089-3.16522.34467a2.16655,2.16655,0,0,1-1.06323-1.27185c-.0777-.1554-.15533-.31079-.24274-.46613a3.59,3.59,0,0,0-5.34973-1.102,3.25143,3.25143,0,0,1-.52435.32526c-2.05347,1.02435-3.68958-1.02917-5.76733-.4903-.84467.21844-1.335.89325-2.3399.24274-.767-.49036-.71844-1.26227-.87866-2.00983-.48547-2.32056-1.44672-4.209-3.76721-5.25269-1.204-.53894-2.23315-.06317-3.40314.11163-1.07281.15533-1.14081-.034-1.57288-.801-.56311-1.00488-2.08264-2.66034-1.51953-3.82544.38837-.801,1.24762-.49524,1.16028-1.76227-.08734-1.30109-1.1554-1.35437-2.24286-1.70886-1.19427-.38831-1.08258-.35919-1.39813-1.437-.29126-1-.18445-1.48065-1.50488-2.01953a6.538,6.538,0,0,0-1.69434-.43207c-2.10687-.25238-1.67.68939-2.71857,1.21851-.92242.46613-2.09235-.17963-3.02924-.16986-1.408.01459-.85443.29608-1.24286,1.335-.72815,1.9613-3.07788,1.33984-4.8595,1.33984-2.53406,0-5.21387.71851-6.05853,3.272-.19421.59229-.03406,2.69434-.233,4.01483a13.80458,13.80458,0,0,1,2.89331,7.6217c.20386,4.02942,1.11664,5.89355,3.6167,7.379a4.385,4.385,0,0,0,.52924.25732,4.69017,4.69017,0,0,1,1.79614,1.26227,5.51639,5.51639,0,0,1,.99036,1.6554,3.29459,3.29459,0,0,0,.301.60193c.49512.73309,1.903,1.2088,3.14093,1.63123.2088.06793.41748.14075.6214.21356a19.05663,19.05663,0,0,1,4.07788,2.20892,11.48749,11.48749,0,0,0,4.2915,2.06805c.54858.07764,1.09229.11652,1.61169.15533a11.497,11.497,0,0,1,4.59247,1.02917c.48547.233,1.02441.4563,1.59235.68933a22.35512,22.35512,0,0,1,2.81573,1.31079A5.99173,5.99173,0,0,1,95.32,62.66067c.0777.55835.20392,1.11658.33978,1.704a15.25262,15.25262,0,0,1,.48547,3.00018c.13593,3.20892-.74274,4.27209-3.908,4.75269a13.17018,13.17018,0,0,1-2.11664.11163c-1.47095-.00482-1.64569.0777-1.88354.44183a33.43813,33.43813,0,0,0-2.607,5.2478l-.1651.37866a9.50423,9.50423,0,0,1-1.869,2.67493,4.5789,4.5789,0,0,0-1.22821,1.82538,4.49816,4.49816,0,0,0-.03888,1,7.43478,7.43478,0,0,1-.13593,1.94183,4.527,4.527,0,0,1-.25726.76221,2.60543,2.60543,0,0,0,1.38843.60687c.93207.01941,1.58258-.77679,2.42731-1.00494,1.88843-.51459,3.33026.568,5.09735.51459,1.47583-.0437.94666-.52429,1.84479-1.31073.73792-.64081,1.45642-.24756,2.16516-.99518.59711-.64087.65051-1.704,1.20392-2.31085.71362-.77191,1.80109-.77191,2.6944-1.11658,1.1311-.432,1.76215-1.39319,2.83508-1.90784.82043-.39325,1.835-.1311,2.72827-.48547.32526-.12622.6554-.466.97095-.61169a13.60351,13.60351,0,0,1,1.3642-.369c1.25732-.38354,1.30585-.91754,2.24762-1.704.37866-.31555,1.06317-.41748,1.46124-.72333.6214-.47577.37384-.41748.78168-1.09717,1.0874-1.8302,1.55347-1.81073,3.86914-1.81073,1.49518,0,1.61169.34467,1.80591-.73309a9.45893,9.45893,0,0,0-.1214-1.8205c-.12134-1.01941-.70874-1.869-.034-2.78656.48059-.6554,1.50983-.66992,2.005-1.27673.46118-.56805.38837-1.35449.89807-1.8739.76221-.78644,2.25745-.82526,3.34-.99036,1.136-.17474,2.306-.15051,3.00983-1.12628.58258-.81073.699-2.56812.97583-3.59729C127.43342,55.97585,125.75373,54.47091,125.31684,52.57277Z"/><path d="M112.89179,93.878c-.49176-.11353-1.06671.20734-1.59.18909-.953-.0332-1.818-.54449-2.5351.20386-.45953.47968-.46515,1.25244-1.32294,1.08368-.67914-.13367-.99884-.88123-1.70374-.29462-.54346.45233-.58942.978-1.3877,1.10547a7.17211,7.17211,0,0,1-1.874-.136c-.59485-.06152-.85754.08307-1.31055-.35474-.51068-.49353-.31226-1.32758-.687-1.78516-.36877-.4502-.99182-.36829-1.35193-.93579-.38556-.6076-.37634-1.14551-1.02551-1.61224-1.18182-.84973-3.08051-.01733-4.49316-.40082a7.74051,7.74051,0,0,0-2.68573-.39441,7.06229,7.06229,0,0,0-2.23383.69537c-.75708.28326-1.53949.59113-2.29407.84955a8.04483,8.04483,0,0,0-1.85437.48456c-.49182.32373-.50085.91864-.83307,1.3562a4.47043,4.47043,0,0,1-1.08771.831c-.369.25366-.81256.48706-1.19794.75873-.49847.35144-.84821.98743-1.38751,1.25293.07263,1.11017-.02472,1.49554.39795,1.69556.50391.2384,1.45154-.15991,1.9942-.05774,1.22925.23151,2.04492,1.41534,3.25049,1.61157,1.41681.23059,2.06213-.65393,3.08484.739a3.00487,3.00487,0,0,1,.25592,2.73547,5.217,5.217,0,0,0-.04584,3.38434,3.108,3.108,0,0,0,1.09637,1.49792c.55524.5014.7373,1.09351,1.48071,1.18573a3.78423,3.78423,0,0,0,3.782-1.8952,14.44258,14.44258,0,0,0,.61182-1.52942c.14374-.46063-.09778-1.049.064-1.48309.24542-.65833,1.98621-1.57422,2.71948-1.65741.71869-.08154,1.43658.64172,2.08984.46484.66168-.17914.76093-.92615.74774-1.47687a2.27307,2.27307,0,0,0,1.85016-.60419,7.71982,7.71982,0,0,1,1.162-1.192c.88074-.57788,2.24921-.1861,3.30945-.53381,1.05536-.34607,1.99841.21136,3.1076.02289.66168-.11243,1.652-.31726,1.73431-1.10651.06165-.59119-.45648-.85858-.53424-1.41736-.15106-1.08551,1.16095-1.7251,1.59222-2.62042C113.502,94.31063,113.26825,93.96493,112.89179,93.878Z"/></svg>